<svg xmlns="http://www.w3.org/2000/svg" viewBox="0 0 134 56"><path d="M123 6l5-5 2 1 1 6v2l2 2 1 6-1 3v4l-2 3c-2 0-3 1-3 2h-1c-2 0-5-2-5-4 1-4 0-4-3-6l-2-1h-2l-1 2v8c3 4 4 10 6 15 1 4 3 6 7 6h2l4 4c0 2 0 2-2 2h-7l-2-1-3-2-4-2-4-5-8-8c-2-3-3-5-3-8l-2-1h-1c-2 0-4 2-5 5l-3 6-1 4c0 2 1 3 3 4l3 2c1 2 1 2-1 2l-7 1-2-2-1-3c-1-1-2-3-1-5v-5c0-3 0-5 2-7l-1-1-12-5c1 0 0 0 0 0-3-1-3-1-4 3l-2 8c-1 3 0 6 1 9 0 2 1 1 2 2 2 0 4 1 5 3 0 2 0 2-2 2h-5l-4-1c-5-4-6-8-7-14 0-3-2-6-4-8h-1l-7 3c-5 1-9 4-12 8l-2 5c0 2 0 3 2 4 2 0 3 1 3 3l-1 1h-8l-2-1-2-5 1-10c1-3 2-4 4-5 6-3 9-8 12-14l-1-1c-3 0-6 2-8 3l-8 7c-3 3-7 5-11 5-7 1-10-4-10-10l2-6c2-2 3-2 5-2 1 1 2 1 1 3l-1 2-1 2c-1 3 1 5 4 5s6-1 8-3l8-8c4-5 9-8 15-9l6-1c4-2 8-2 13-2l6-1c4-2 10-2 15-1l12 2h7l13-2 9 2c2 1 2 1 1 3z"/></svg>