<svg version="1.1" id="Layer_1" xmlns="http://www.w3.org/2000/svg" x="0" y="0" viewBox="0 0 190.4 37.6" xml:space="preserve"><style>.st0{fill:#fdc305}.st1{fill:#f06351}.st2{fill:#111}</style><path class="st0" d="M6 21v-3l20-1v2l6-2c-2-6-8-11-15-11C8 6 1 12 0 20l6 1zM27 24l-1 4v9a17 17 0 007-17l-6 4zM6 26l-5-2H0c0 6 4 11 9 14L6 26z"/><path class="st1" d="M26 17L25 1s0-2-1-1l-1 4-13 1-3-4v3L6 19l20-2z"/><path d="M12 14l2 1v1h-1 1l-2-2zM20 14l-1 1v1l1-1c0-1 0 0 0 0h-1l1-1zM17 20l1-1v-1h-2v2h1z"/><path class="st1" d="M16 22l-1 1-2-1-1-1s1 5 3 5c2 1 2-1 2-1l-1-3c1-1 0 0 0 0z"/><path d="M15 23c-2 0-3-2-3-2h1l2 1 1-1 2 1 1-1-2 1h-1l-1 1z"/><path class="st1" d="M26 19l-5 5-5 5-2-1-5-4-3-3H4c5 7 12 8 12 8l5-3 6-6 1-2-2 1z"/><g><path class="st2" d="M1 20l-1-5V9l1-4 4-2 4 1 2 4v2H7V8L6 6H4v12h2l1-2v-2h4v2l-2 4-4 1-4-1zM15 3h5l3 18h-4v-4h-3v4h-4l3-18zm3 12l-1-7v7h1zM26 6h-3V3h9v3h-2v15h-4V6zM40 3h6v2h-4v6h4v2h-4v6h5v2h-7V3zM49 3h1l5 12V3h2v18h-1L51 9v12h-2V3zM60 3h7v2h-5v6h4v2h-4v6h5v2h-7V3zM69 3h3l4 1 2 4c0 2-1 4-3 4l3 9h-2l-3-8h-2v8h-2V3zm3 8l3-1V8 6l-1-1h-3v6h1zM81 20l-1-5V9 6l2-2 3-1 3 1 1 4v1h-2V8 6l-1-1h-1l-2 1-1 1v8l1 3 2 1 2-1v-4h-2v-2h4v9h-1v-2l-4 2-3-1zM94 15L90 3h3l2 9 3-9h2l-3 12v6h-3v-6z" transform="translate(90 10)"/></g></svg>