<svg version="1.1" id="Layer_1" xmlns="http://www.w3.org/2000/svg" x="0" y="0" viewBox="0 0 202 59.5" xml:space="preserve"><style>.st0{fill:#fdc305}.st1{fill:#f06351}.st3{fill:#111}.st4{fill:#444}</style><path class="st0" d="M60 24C54 11 39 5 26 10a26 26 0 007 49l-2-7 5 3v5l5-1v-1l1-7 3-4v1l-2 10-1 1 4-1c13-6 19-21 14-34zm-2 4s-1 1-1-1v-2l-3-3c-1 0-6 3-7 5-1 1-2 1-2 3v13l-8 2-7 2-1-6-3-13-5-2c-2 0-3-1-4 1-2 1-2 4-2 4l1 1-2 1-1-4 2-3 2-3h9v-2l20-2v2l8-2 1 1 3 3 1 3-1 2z"/><path class="st1" d="M57 22l1 1 1 3-1 2c-1 1-1 1-1-1v-2l-3-3c-1 0-6 3-7 5-1 1-2 1-2 3v11l6 2s-1-7 8-3c0 0 0-10 11-8 0 0-5-7-13-10zM46 19L44 3c1 0 0-1 0 0l-2 4H30l-3-4-1 4v14l20-2z"/><path d="M45 47l1-4-8 2-8 2 1 5 5 3 7-4 2-4z" fill="#e55645"/><path d="M32 16l1 1 1 1h-2 2l-2-2zM40 16l-2 2h2v-1l-1 1 1-2zM36 22l1-1v-1l-2 1v1h1z"/><path class="st1" d="M36 24h-1l-1 1-1-1h-1s1 4 3 4c1 1 2 0 2-1l-1-3z"/><path d="M34 25l-2-2 2 2 2-1v-1 1h1l2-1-2 2-1-1-2 1z"/><circle transform="rotate(-23 36 35)" class="st0" cx="36.3" cy="34.5" r="3.8"/><path class="st3" d="M41 32l-3 1 1-6-7 10 3-1-1 5 7-9zm-7 3l4-5-1 4 2-1-4 6 1-4h-2z"/><circle transform="rotate(-23 32 33)" class="st3" cx="32.4" cy="32.7" r="1.1"/><circle transform="rotate(-23 39 37)" class="st3" cx="39" cy="37.1" r=".8"/><circle transform="rotate(-23 40 35)" class="st3" cx="39.9" cy="35.4" r=".3"/><path class="st1" d="M46 21l-5 5c-2 3-6 5-6 5l-1-1-5-4-3-3h-2c4 7 12 9 12 9l5-4 6-6 1-2-2 1z"/><path class="st0" d="M65 4l-8 9-1-2 8-11zM63 17l5-4-1-4-5 5zM60 49l6 4 3-3-7-2zM2 6l3-3 9 9-1 2zM7 16l-4-3-3 4 5 2zM14 53l-5 3 3 4 4-4z"/><path class="st1" d="M26 28l-5-2c-2 0-3-1-4 1-2 1-2 4-2 4l1 1-2 1-1-4 2-3-15 9h8c6 1 5 5 5 5l6-1c2 0 2 2 2 2l1 4 2-2c2-2 4-2 5-2l-3-13z"/><path class="st3" d="M86 42l-2-5v-8l2-5c1-1 2-2 5-2l4 2 1 4v2h-4v-2-1-1h-2-1v14l1 1 2-1v-4h4v2l-1 4c-1 1-2 2-5 2l-4-2zM102 23h5l4 21h-4l-1-5h-3l-1 5h-4l4-21zm4 13l-2-8-1 8h3zM114 26h-3v-4h10v4h-3v18h-4V26z"/><path class="st4" d="M130 23h8v2h-6v7h5v2h-5v8h6v2h-8V23zM140 23h2l6 14V23h2v21h-1l-6-15v15h-3V23zM154 23h8v2h-5v7h4v2h-4v8h5v2h-8V23zM164 23h5l4 1 2 4c0 3-1 5-3 5l3 11h-3l-2-10h-3v10h-3V23zm4 9l3-1 1-3v-2l-1-1h-4v7h1zM179 42l-2-5v-7l1-4 2-3h3l4 1 1 5h-2v-2l-1-2h-2l-2 1-1 1v10l1 4 2 1 2-2 1-3v-2h-3v-2h5v11h-1l-1-3c0 2-2 3-3 3l-4-2zM195 36l-5-13h3l3 10 3-10h3l-5 13v8h-2v-8z"/></svg>