<svg version="1.1" id="Layer_1" xmlns="http://www.w3.org/2000/svg" x="0" y="0" viewBox="0 0 127.8 23.4" xml:space="preserve"><style>.st0{fill:#111}</style><path class="st0" d="M2 22l-2-6V8l2-6c1-1 2-2 5-2l5 2 1 5v2H9V6L8 4H5v15l2 1 1-1 1-2v-2h4v2l-1 5-5 2-5-2zM19 0h6l4 23h-4l-1-5h-3l-1 5h-5l4-23zm4 15l-1-9-1 9h2zM33 4h-4V0h12v4h-3v19h-5V4zM50 0h9v3h-6v7h5v2h-5v9h6v2h-9V0zM62 0h2l6 15V0h3v23h-2L64 8v15h-2V0zM76 0h9v3h-6v7h5v2h-5v9h6v2h-9V0zM87 0h5l5 2 2 4c0 3-1 5-3 6l3 11h-3l-3-11h-2v11h-4V0zm5 10l3-1 1-3-1-2-1-1-2-1h-1v8h1zM103 21l-2-5V8l1-4 2-3 3-1c3 0 4 1 5 2l1 5v1h-3V7 4l-1-1h-2-2v2l-1 3v8l1 4 2 1 3-1 1-4v-2h-3v-2h5v11h-2v-2l-4 2c-2 0-3 0-4-2zM120 15l-5-15h3l3 11 4-11h3l-5 15v8h-3v-8z"/></svg>