<svg version="1.1" id="Layer_2" xmlns="http://www.w3.org/2000/svg" x="0" y="0" viewBox="0 0 172.3 57.1" xml:space="preserve"><style>.st1{fill:#f06351}.st3{fill:#111}.st4{fill:#444}</style><path d="M60 22a25 25 0 10-47 19c3 9 11 14 19 16l-1-7 4 3 1 4h5v-1l1-8 3-3-2 10-1 1 4-1c13-5 19-20 14-33zm-2 4l-1-1v-2l-3-4-7 5c-1 1-2 1-2 4v13l-8 2-7 2-1-6-3-13-5-2c-2 0-3-1-4 1-2 1-2 3-2 3l1 2h-2l-1-3 2-4 2-2 1-1 8 1v-3l20-1v2l8-2h1l2 4c1 0 2 1 2 3l-1 2z" fill="#fdc305"/><path class="st1" d="M56 19l1 2 2 3-1 1h-1l-1-2-2-4-7 5c-2 1-2 1-2 4v11c2 0 5 0 6 2 0 0-1-7 7-4 0 0 1-9 12-7 0 0-6-7-14-11zM46 17L44 1s0-2-1-1l-1 4-13 1c0-3-2-4-2-4l-1 3v14l20-1z"/><path d="M45 45v-4l-8 2-7 2 1 5 4 3 7-5v1l3-4z" fill="#e55645"/><path d="M32 14l1 1 1 1h-2 1l-1-2zM39 14l-1 1v1l2-1c1-1 0 0 0 0h-1v-1zM36 20l1-1v-1h-2v2h1z"/><path class="st1" d="M36 21l-1 1h-1-1-1v-1l2 5c2 1 3-1 3-1l-1-3v-1z"/><path d="M34 23l-2-2 2 1 2-1 1 1 2-1-2 1h-1l-2 1z"/><path class="st3" d="M41 29l-3 1 1-5-7 10 3-2-1 6 7-10zm-7 4l4-5-1 4 2-1-4 5 1-4-2 1z"/><path class="st1" d="M46 19l-5 5-6 5-1-1-5-4-4-3h-2c5 7 12 8 12 8l6-3 5-6 2-2-2 1zM26 26l-5-2h-4l-2 4v2h-2v-3l2-4L0 33h8c5 0 5 5 5 5l6-1c2-1 2 2 2 2l1 3 2-2 5-1-3-13z"/><path class="st3" d="M90 37l-1-4v-5l1-4 3-1 3 1 1 3v2h-3v-2-1-1h-1l-1 1v10h2v-3h3v1l-1 3-3 1-3-1zM101 23h3l3 15h-2l-1-3h-2l-1 3h-3l3-15zm3 10l-1-6-1 6h2zM110 26h-3v-3h8v3h-3v12h-3V26z"/><path class="st4" d="M121 23h6v2h-4v5h3v1h-3v6h4v1h-6V23zM128 23h2l4 10V23h2v15h-2l-4-10v10h-2V23zM138 23h6v2h-4v5h3v1h-3v6h4v1h-6V23zM146 23h3l3 1 1 3-2 4 2 7h-2l-2-7h-1v7h-3V23zm2 7l2-1 1-2v-1l-1-1h-2v5zM156 37l-1-4v-5-2l1-2 3-1 3 1 1 4h-2v-2l-1-1h-2l-1 1v10l2 1 2-1v-4h-2v-1h4v7h-1l-1-1-2 2-3-2zM167 33l-3-10h2l2 7 2-7h2l-3 10v5h-2v-5z"/></svg>